# xmcd
# 
# Track frame offsets:
#   150
#   15978
#   33909
#   50615
#   65527
#   81251
#   95849
#   112808
#   128874
#   145553
#   162047
#   178849
#   197968
#   214489
#   233274
# 
# Disc length: 3340 seconds
# 
# Revision: 2
# Processed by: cddbd v1.5.2PL0 Copyright (c) Steve Scherf et al.
# Submitted via: Synapstar 1.0 
# 
DISCID=c70d0a0f
DTITLE=Country Karaoke Summre/Fall 2006
DYEAR=2006
DGENRE=Country
TTITLE0=Faith Hill - Sunshine and Summertime
TTITLE1=Carrie Underwood - Don't Forget To Remember Me
TTITLE2=Toby Keith - A Little Too Late
TTITLE3=Kenny Chesney - Summertime
TTITLE4=Tim McGraw - When The Stars Go Blue
TTITLE5=Gretchen Wilson - California Girls
TTITLE6=Rascal Flatts - Me And My Gang
TTITLE7=SAra Evans - Coalmine
TTITLE8=Brad Paisley - The World
TTITLE9=Wreckers - Leave The Pieces
TTITLE10=Brooks and Dunn - Building Bridges
TTITLE11=Little Big Town - Bring It On Home
TTITLE12=Miranda Lambert - New Strings
TTITLE13=Keith Anderson - Everytime I Hear Your Name
TTITLE14=Phil Vassar - Last Day Of My Life
EXTD=Summer/Fall 2006 MediaType: Karaoke CD+G Producer: Song Factory
EXTT0=
EXTT1=
EXTT2=
EXTT3=
EXTT4=
EXTT5=
EXTT6=
EXTT7=
EXTT8=
EXTT9=
EXTT10=
EXTT11=
EXTT12=
EXTT13=
EXTT14=
PLAYORDER=
